<svg xmlns="http://www.w3.org/2000/svg" width="64" height="64" viewBox="0 0 64 64" fill="none">
  <rect width="64" height="64" rx="12" fill="#2D2D3A"/>
  <path d="M32 16C23.164 16 16 23.164 16 32C16 40.836 23.164 48 32 48C40.836 48 48 40.836 48 32C48 23.164 40.836 16 32 16ZM32 20C38.617 20 44 25.383 44 32C44 38.617 38.617 44 32 44C25.383 44 20 38.617 20 32C20 25.383 25.383 20 32 20Z" fill="#00FF88"/>
  <path d="M32 24C27.582 24 24 27.582 24 32C24 36.418 27.582 40 32 40C36.418 40 40 36.418 40 32C40 27.582 36.418 24 32 24ZM32 28C34.209 28 36 29.791 36 32C36 34.209 34.209 36 32 36C29.791 36 28 34.209 28 32C28 29.791 29.791 28 32 28Z" fill="#00FF88"/>
</svg>
